# xmcd
#
# Track frame offsets:
#	150
#	13704
#	27349
#	38153
#	49734
#	60900
#	76454
#	89530
#	108923
#	128770
#	141259
#	159582
#	172505
#	190242
#
# Disc length: 2821 seconds
#
# Revision: 0
# Processed by: cddbd v1.5.2PL0 Copyright (c) Steve Scherf et al.
# Submitted via: audiograbber 1.83.01
#
DISCID=aa0b030e
DTITLE=The Sons of Rainier - Down in Pancake Valley
DYEAR=2018
DGENRE=Country
TTITLE0=Payette
TTITLE1=Big Clouds
TTITLE2=Wanna Give My Love
TTITLE3=Where You're Goin'
TTITLE4=Please
TTITLE5=Hobo Dream
TTITLE6=Want You to Know
TTITLE7=Freedumb
TTITLE8=The Story
TTITLE9=Long Gone
TTITLE10=Rooftop
TTITLE11=Wonder Where
TTITLE12=Pipe of Doom
TTITLE13=Hallelujah
EXTD=Devin Champlin - Guitar, Vocal\nDean Hohnson - Lead Guitar, Vocal\nSam Gel
EXTD=band - Snare Drum, Vocal\nCharlie Meyer - Upright Bass, Smiles, and Vocal 
EXTD=on Hallelujah
EXTT0=
EXTT1=
EXTT2=
EXTT3=
EXTT4=
EXTT5=
EXTT6=
EXTT7=
EXTT8=
EXTT9=
EXTT10=
EXTT11=
EXTT12=
EXTT13=
PLAYORDER=
